<mxfile host="app.diagrams.net" agent="Mozilla/5.0 (Windows NT 10.0; Win64; x64; rv:130.0) Gecko/20100101 Firefox/130.0" version="24.7.13">
  <diagram id="C5RBs43oDa-KdzZeNtuy" name="Page-1">
    <mxGraphModel dx="2408" dy="735" grid="1" gridSize="10" guides="1" tooltips="1" connect="1" arrows="1" fold="1" page="1" pageScale="1" pageWidth="827" pageHeight="1169" math="0" shadow="0">
      <root>
        <mxCell id="WIyWlLk6GJQsqaUBKTNV-0" />
        <mxCell id="WIyWlLk6GJQsqaUBKTNV-1" parent="WIyWlLk6GJQsqaUBKTNV-0" />
        <mxCell id="zkfFHV4jXpPFQw0GAbJ--0" value="Accident" style="swimlane;fontStyle=2;align=center;verticalAlign=top;childLayout=stackLayout;horizontal=1;startSize=26;horizontalStack=0;resizeParent=1;resizeLast=0;collapsible=1;marginBottom=0;rounded=0;shadow=0;strokeWidth=1;" parent="WIyWlLk6GJQsqaUBKTNV-1" vertex="1">
          <mxGeometry x="-1062" y="600" width="160" height="140" as="geometry">
            <mxRectangle x="230" y="140" width="160" height="26" as="alternateBounds" />
          </mxGeometry>
        </mxCell>
        <mxCell id="zkfFHV4jXpPFQw0GAbJ--1" value="Accident_id" style="text;align=left;verticalAlign=top;spacingLeft=4;spacingRight=4;overflow=hidden;rotatable=0;points=[[0,0.5],[1,0.5]];portConstraint=eastwest;" parent="zkfFHV4jXpPFQw0GAbJ--0" vertex="1">
          <mxGeometry y="26" width="160" height="26" as="geometry" />
        </mxCell>
        <mxCell id="hHf1MksaNPmu3KOBVRJs-0" value="Accident_date" style="text;align=left;verticalAlign=top;spacingLeft=4;spacingRight=4;overflow=hidden;rotatable=0;points=[[0,0.5],[1,0.5]];portConstraint=eastwest;rounded=0;shadow=0;html=0;" vertex="1" parent="zkfFHV4jXpPFQw0GAbJ--0">
          <mxGeometry y="52" width="160" height="26" as="geometry" />
        </mxCell>
        <mxCell id="zkfFHV4jXpPFQw0GAbJ--2" value="Accident_date" style="text;align=left;verticalAlign=top;spacingLeft=4;spacingRight=4;overflow=hidden;rotatable=0;points=[[0,0.5],[1,0.5]];portConstraint=eastwest;rounded=0;shadow=0;html=0;" parent="zkfFHV4jXpPFQw0GAbJ--0" vertex="1">
          <mxGeometry y="78" width="160" height="26" as="geometry" />
        </mxCell>
        <mxCell id="zkfFHV4jXpPFQw0GAbJ--3" value="Accident_description" style="text;align=left;verticalAlign=top;spacingLeft=4;spacingRight=4;overflow=hidden;rotatable=0;points=[[0,0.5],[1,0.5]];portConstraint=eastwest;rounded=0;shadow=0;html=0;" parent="zkfFHV4jXpPFQw0GAbJ--0" vertex="1">
          <mxGeometry y="104" width="160" height="26" as="geometry" />
        </mxCell>
        <mxCell id="zkfFHV4jXpPFQw0GAbJ--6" value="Device" style="swimlane;fontStyle=0;align=center;verticalAlign=top;childLayout=stackLayout;horizontal=1;startSize=26;horizontalStack=0;resizeParent=1;resizeLast=0;collapsible=1;marginBottom=0;rounded=0;shadow=0;strokeWidth=1;" parent="WIyWlLk6GJQsqaUBKTNV-1" vertex="1">
          <mxGeometry x="-222" y="604" width="160" height="208" as="geometry">
            <mxRectangle x="130" y="380" width="160" height="26" as="alternateBounds" />
          </mxGeometry>
        </mxCell>
        <mxCell id="zkfFHV4jXpPFQw0GAbJ--7" value="Device_id" style="text;align=left;verticalAlign=top;spacingLeft=4;spacingRight=4;overflow=hidden;rotatable=0;points=[[0,0.5],[1,0.5]];portConstraint=eastwest;" parent="zkfFHV4jXpPFQw0GAbJ--6" vertex="1">
          <mxGeometry y="26" width="160" height="26" as="geometry" />
        </mxCell>
        <mxCell id="zkfFHV4jXpPFQw0GAbJ--8" value="Device_status" style="text;align=left;verticalAlign=top;spacingLeft=4;spacingRight=4;overflow=hidden;rotatable=0;points=[[0,0.5],[1,0.5]];portConstraint=eastwest;rounded=0;shadow=0;html=0;" parent="zkfFHV4jXpPFQw0GAbJ--6" vertex="1">
          <mxGeometry y="52" width="160" height="26" as="geometry" />
        </mxCell>
        <mxCell id="zkfFHV4jXpPFQw0GAbJ--11" value="Device_exitDate" style="text;align=left;verticalAlign=top;spacingLeft=4;spacingRight=4;overflow=hidden;rotatable=0;points=[[0,0.5],[1,0.5]];portConstraint=eastwest;" parent="zkfFHV4jXpPFQw0GAbJ--6" vertex="1">
          <mxGeometry y="78" width="160" height="26" as="geometry" />
        </mxCell>
        <mxCell id="hHf1MksaNPmu3KOBVRJs-8" value="Device_priceRent" style="text;align=left;verticalAlign=top;spacingLeft=4;spacingRight=4;overflow=hidden;rotatable=0;points=[[0,0.5],[1,0.5]];portConstraint=eastwest;" vertex="1" parent="zkfFHV4jXpPFQw0GAbJ--6">
          <mxGeometry y="104" width="160" height="26" as="geometry" />
        </mxCell>
        <mxCell id="hHf1MksaNPmu3KOBVRJs-7" value="Device_description" style="text;align=left;verticalAlign=top;spacingLeft=4;spacingRight=4;overflow=hidden;rotatable=0;points=[[0,0.5],[1,0.5]];portConstraint=eastwest;" vertex="1" parent="zkfFHV4jXpPFQw0GAbJ--6">
          <mxGeometry y="130" width="160" height="26" as="geometry" />
        </mxCell>
        <mxCell id="hHf1MksaNPmu3KOBVRJs-6" value="Device_image" style="text;align=left;verticalAlign=top;spacingLeft=4;spacingRight=4;overflow=hidden;rotatable=0;points=[[0,0.5],[1,0.5]];portConstraint=eastwest;" vertex="1" parent="zkfFHV4jXpPFQw0GAbJ--6">
          <mxGeometry y="156" width="160" height="26" as="geometry" />
        </mxCell>
        <mxCell id="hHf1MksaNPmu3KOBVRJs-5" value="Device_name" style="text;align=left;verticalAlign=top;spacingLeft=4;spacingRight=4;overflow=hidden;rotatable=0;points=[[0,0.5],[1,0.5]];portConstraint=eastwest;" vertex="1" parent="zkfFHV4jXpPFQw0GAbJ--6">
          <mxGeometry y="182" width="160" height="26" as="geometry" />
        </mxCell>
        <mxCell id="zkfFHV4jXpPFQw0GAbJ--13" value="Accident_category" style="swimlane;fontStyle=0;align=center;verticalAlign=top;childLayout=stackLayout;horizontal=1;startSize=26;horizontalStack=0;resizeParent=1;resizeLast=0;collapsible=1;marginBottom=0;rounded=0;shadow=0;strokeWidth=1;" parent="WIyWlLk6GJQsqaUBKTNV-1" vertex="1">
          <mxGeometry x="-2" y="600" width="160" height="78" as="geometry">
            <mxRectangle x="340" y="380" width="170" height="26" as="alternateBounds" />
          </mxGeometry>
        </mxCell>
        <mxCell id="zkfFHV4jXpPFQw0GAbJ--14" value="Accident_category_id" style="text;align=left;verticalAlign=top;spacingLeft=4;spacingRight=4;overflow=hidden;rotatable=0;points=[[0,0.5],[1,0.5]];portConstraint=eastwest;" parent="zkfFHV4jXpPFQw0GAbJ--13" vertex="1">
          <mxGeometry y="26" width="160" height="26" as="geometry" />
        </mxCell>
        <mxCell id="hHf1MksaNPmu3KOBVRJs-4" value="Accident_category_name" style="text;align=left;verticalAlign=top;spacingLeft=4;spacingRight=4;overflow=hidden;rotatable=0;points=[[0,0.5],[1,0.5]];portConstraint=eastwest;" vertex="1" parent="zkfFHV4jXpPFQw0GAbJ--13">
          <mxGeometry y="52" width="160" height="26" as="geometry" />
        </mxCell>
        <mxCell id="zkfFHV4jXpPFQw0GAbJ--17" value="Customer" style="swimlane;fontStyle=0;align=center;verticalAlign=top;childLayout=stackLayout;horizontal=1;startSize=26;horizontalStack=0;resizeParent=1;resizeLast=0;collapsible=1;marginBottom=0;rounded=0;shadow=0;strokeWidth=1;" parent="WIyWlLk6GJQsqaUBKTNV-1" vertex="1">
          <mxGeometry x="-652" y="604" width="160" height="286" as="geometry">
            <mxRectangle x="550" y="140" width="160" height="26" as="alternateBounds" />
          </mxGeometry>
        </mxCell>
        <mxCell id="zkfFHV4jXpPFQw0GAbJ--18" value="Customer_id" style="text;align=left;verticalAlign=top;spacingLeft=4;spacingRight=4;overflow=hidden;rotatable=0;points=[[0,0.5],[1,0.5]];portConstraint=eastwest;" parent="zkfFHV4jXpPFQw0GAbJ--17" vertex="1">
          <mxGeometry y="26" width="160" height="26" as="geometry" />
        </mxCell>
        <mxCell id="zkfFHV4jXpPFQw0GAbJ--19" value="Customer_firstName" style="text;align=left;verticalAlign=top;spacingLeft=4;spacingRight=4;overflow=hidden;rotatable=0;points=[[0,0.5],[1,0.5]];portConstraint=eastwest;rounded=0;shadow=0;html=0;" parent="zkfFHV4jXpPFQw0GAbJ--17" vertex="1">
          <mxGeometry y="52" width="160" height="26" as="geometry" />
        </mxCell>
        <mxCell id="zkfFHV4jXpPFQw0GAbJ--20" value="Customer_lastName" style="text;align=left;verticalAlign=top;spacingLeft=4;spacingRight=4;overflow=hidden;rotatable=0;points=[[0,0.5],[1,0.5]];portConstraint=eastwest;rounded=0;shadow=0;html=0;" parent="zkfFHV4jXpPFQw0GAbJ--17" vertex="1">
          <mxGeometry y="78" width="160" height="26" as="geometry" />
        </mxCell>
        <mxCell id="zkfFHV4jXpPFQw0GAbJ--21" value="Customer_email" style="text;align=left;verticalAlign=top;spacingLeft=4;spacingRight=4;overflow=hidden;rotatable=0;points=[[0,0.5],[1,0.5]];portConstraint=eastwest;rounded=0;shadow=0;html=0;" parent="zkfFHV4jXpPFQw0GAbJ--17" vertex="1">
          <mxGeometry y="104" width="160" height="26" as="geometry" />
        </mxCell>
        <mxCell id="zkfFHV4jXpPFQw0GAbJ--22" value="Customer_password" style="text;align=left;verticalAlign=top;spacingLeft=4;spacingRight=4;overflow=hidden;rotatable=0;points=[[0,0.5],[1,0.5]];portConstraint=eastwest;rounded=0;shadow=0;html=0;" parent="zkfFHV4jXpPFQw0GAbJ--17" vertex="1">
          <mxGeometry y="130" width="160" height="26" as="geometry" />
        </mxCell>
        <mxCell id="zkfFHV4jXpPFQw0GAbJ--24" value="Customer_image" style="text;align=left;verticalAlign=top;spacingLeft=4;spacingRight=4;overflow=hidden;rotatable=0;points=[[0,0.5],[1,0.5]];portConstraint=eastwest;" parent="zkfFHV4jXpPFQw0GAbJ--17" vertex="1">
          <mxGeometry y="156" width="160" height="26" as="geometry" />
        </mxCell>
        <mxCell id="hHf1MksaNPmu3KOBVRJs-1" value="Customer_address" style="text;align=left;verticalAlign=top;spacingLeft=4;spacingRight=4;overflow=hidden;rotatable=0;points=[[0,0.5],[1,0.5]];portConstraint=eastwest;" vertex="1" parent="zkfFHV4jXpPFQw0GAbJ--17">
          <mxGeometry y="182" width="160" height="26" as="geometry" />
        </mxCell>
        <mxCell id="hHf1MksaNPmu3KOBVRJs-2" value="Customer_zipCode" style="text;align=left;verticalAlign=top;spacingLeft=4;spacingRight=4;overflow=hidden;rotatable=0;points=[[0,0.5],[1,0.5]];portConstraint=eastwest;" vertex="1" parent="zkfFHV4jXpPFQw0GAbJ--17">
          <mxGeometry y="208" width="160" height="26" as="geometry" />
        </mxCell>
        <mxCell id="hHf1MksaNPmu3KOBVRJs-3" value="Customer_phoneNum" style="text;align=left;verticalAlign=top;spacingLeft=4;spacingRight=4;overflow=hidden;rotatable=0;points=[[0,0.5],[1,0.5]];portConstraint=eastwest;" vertex="1" parent="zkfFHV4jXpPFQw0GAbJ--17">
          <mxGeometry y="234" width="160" height="26" as="geometry" />
        </mxCell>
        <mxCell id="zkfFHV4jXpPFQw0GAbJ--25" value="Admin_boolean" style="text;align=left;verticalAlign=top;spacingLeft=4;spacingRight=4;overflow=hidden;rotatable=0;points=[[0,0.5],[1,0.5]];portConstraint=eastwest;" parent="zkfFHV4jXpPFQw0GAbJ--17" vertex="1">
          <mxGeometry y="260" width="160" height="26" as="geometry" />
        </mxCell>
        <mxCell id="hHf1MksaNPmu3KOBVRJs-9" value="Device_category" style="swimlane;fontStyle=0;align=center;verticalAlign=top;childLayout=stackLayout;horizontal=1;startSize=26;horizontalStack=0;resizeParent=1;resizeLast=0;collapsible=1;marginBottom=0;rounded=0;shadow=0;strokeWidth=1;" vertex="1" parent="WIyWlLk6GJQsqaUBKTNV-1">
          <mxGeometry x="-855" y="600" width="160" height="78" as="geometry">
            <mxRectangle x="340" y="380" width="170" height="26" as="alternateBounds" />
          </mxGeometry>
        </mxCell>
        <mxCell id="hHf1MksaNPmu3KOBVRJs-10" value="Device_category_id" style="text;align=left;verticalAlign=top;spacingLeft=4;spacingRight=4;overflow=hidden;rotatable=0;points=[[0,0.5],[1,0.5]];portConstraint=eastwest;" vertex="1" parent="hHf1MksaNPmu3KOBVRJs-9">
          <mxGeometry y="26" width="160" height="26" as="geometry" />
        </mxCell>
        <mxCell id="hHf1MksaNPmu3KOBVRJs-11" value="Device_category_name" style="text;align=left;verticalAlign=top;spacingLeft=4;spacingRight=4;overflow=hidden;rotatable=0;points=[[0,0.5],[1,0.5]];portConstraint=eastwest;" vertex="1" parent="hHf1MksaNPmu3KOBVRJs-9">
          <mxGeometry y="52" width="160" height="26" as="geometry" />
        </mxCell>
        <mxCell id="hHf1MksaNPmu3KOBVRJs-12" value="Authorisation" style="swimlane;fontStyle=2;align=center;verticalAlign=top;childLayout=stackLayout;horizontal=1;startSize=26;horizontalStack=0;resizeParent=1;resizeLast=0;collapsible=1;marginBottom=0;rounded=0;shadow=0;strokeWidth=1;" vertex="1" parent="WIyWlLk6GJQsqaUBKTNV-1">
          <mxGeometry x="-1262" y="604" width="160" height="120" as="geometry">
            <mxRectangle x="230" y="140" width="160" height="26" as="alternateBounds" />
          </mxGeometry>
        </mxCell>
        <mxCell id="hHf1MksaNPmu3KOBVRJs-13" value="Authorisation_id" style="text;align=left;verticalAlign=top;spacingLeft=4;spacingRight=4;overflow=hidden;rotatable=0;points=[[0,0.5],[1,0.5]];portConstraint=eastwest;" vertex="1" parent="hHf1MksaNPmu3KOBVRJs-12">
          <mxGeometry y="26" width="160" height="26" as="geometry" />
        </mxCell>
        <mxCell id="hHf1MksaNPmu3KOBVRJs-14" value="Authorisation_type" style="text;align=left;verticalAlign=top;spacingLeft=4;spacingRight=4;overflow=hidden;rotatable=0;points=[[0,0.5],[1,0.5]];portConstraint=eastwest;rounded=0;shadow=0;html=0;" vertex="1" parent="hHf1MksaNPmu3KOBVRJs-12">
          <mxGeometry y="52" width="160" height="26" as="geometry" />
        </mxCell>
        <mxCell id="hHf1MksaNPmu3KOBVRJs-15" value="Authorisation_description" style="text;align=left;verticalAlign=top;spacingLeft=4;spacingRight=4;overflow=hidden;rotatable=0;points=[[0,0.5],[1,0.5]];portConstraint=eastwest;rounded=0;shadow=0;html=0;" vertex="1" parent="hHf1MksaNPmu3KOBVRJs-12">
          <mxGeometry y="78" width="160" height="26" as="geometry" />
        </mxCell>
        <mxCell id="hHf1MksaNPmu3KOBVRJs-17" value="Consent" style="swimlane;fontStyle=2;align=center;verticalAlign=top;childLayout=stackLayout;horizontal=1;startSize=26;horizontalStack=0;resizeParent=1;resizeLast=0;collapsible=1;marginBottom=0;rounded=0;shadow=0;strokeWidth=1;" vertex="1" parent="WIyWlLk6GJQsqaUBKTNV-1">
          <mxGeometry x="198" y="604" width="160" height="140" as="geometry">
            <mxRectangle x="230" y="140" width="160" height="26" as="alternateBounds" />
          </mxGeometry>
        </mxCell>
        <mxCell id="hHf1MksaNPmu3KOBVRJs-18" value="consent_id" style="text;align=left;verticalAlign=top;spacingLeft=4;spacingRight=4;overflow=hidden;rotatable=0;points=[[0,0.5],[1,0.5]];portConstraint=eastwest;" vertex="1" parent="hHf1MksaNPmu3KOBVRJs-17">
          <mxGeometry y="26" width="160" height="26" as="geometry" />
        </mxCell>
        <mxCell id="hHf1MksaNPmu3KOBVRJs-19" value="consent_type" style="text;align=left;verticalAlign=top;spacingLeft=4;spacingRight=4;overflow=hidden;rotatable=0;points=[[0,0.5],[1,0.5]];portConstraint=eastwest;rounded=0;shadow=0;html=0;" vertex="1" parent="hHf1MksaNPmu3KOBVRJs-17">
          <mxGeometry y="52" width="160" height="26" as="geometry" />
        </mxCell>
        <mxCell id="hHf1MksaNPmu3KOBVRJs-20" value="consent_given" style="text;align=left;verticalAlign=top;spacingLeft=4;spacingRight=4;overflow=hidden;rotatable=0;points=[[0,0.5],[1,0.5]];portConstraint=eastwest;rounded=0;shadow=0;html=0;" vertex="1" parent="hHf1MksaNPmu3KOBVRJs-17">
          <mxGeometry y="78" width="160" height="26" as="geometry" />
        </mxCell>
        <mxCell id="hHf1MksaNPmu3KOBVRJs-21" value="consent_date" style="text;align=left;verticalAlign=top;spacingLeft=4;spacingRight=4;overflow=hidden;rotatable=0;points=[[0,0.5],[1,0.5]];portConstraint=eastwest;rounded=0;shadow=0;html=0;" vertex="1" parent="hHf1MksaNPmu3KOBVRJs-17">
          <mxGeometry y="104" width="160" height="26" as="geometry" />
        </mxCell>
        <mxCell id="hHf1MksaNPmu3KOBVRJs-22" value="Reservation" style="swimlane;fontStyle=0;align=center;verticalAlign=top;childLayout=stackLayout;horizontal=1;startSize=26;horizontalStack=0;resizeParent=1;resizeLast=0;collapsible=1;marginBottom=0;rounded=0;shadow=0;strokeWidth=1;" vertex="1" parent="WIyWlLk6GJQsqaUBKTNV-1">
          <mxGeometry x="-422" y="604" width="160" height="261" as="geometry">
            <mxRectangle x="550" y="140" width="160" height="26" as="alternateBounds" />
          </mxGeometry>
        </mxCell>
        <mxCell id="hHf1MksaNPmu3KOBVRJs-23" value="Reservation_id" style="text;align=left;verticalAlign=top;spacingLeft=4;spacingRight=4;overflow=hidden;rotatable=0;points=[[0,0.5],[1,0.5]];portConstraint=eastwest;" vertex="1" parent="hHf1MksaNPmu3KOBVRJs-22">
          <mxGeometry y="26" width="160" height="26" as="geometry" />
        </mxCell>
        <mxCell id="hHf1MksaNPmu3KOBVRJs-24" value="Reservation_endDate" style="text;align=left;verticalAlign=top;spacingLeft=4;spacingRight=4;overflow=hidden;rotatable=0;points=[[0,0.5],[1,0.5]];portConstraint=eastwest;rounded=0;shadow=0;html=0;" vertex="1" parent="hHf1MksaNPmu3KOBVRJs-22">
          <mxGeometry y="52" width="160" height="26" as="geometry" />
        </mxCell>
        <mxCell id="hHf1MksaNPmu3KOBVRJs-25" value="Reservation_startDate" style="text;align=left;verticalAlign=top;spacingLeft=4;spacingRight=4;overflow=hidden;rotatable=0;points=[[0,0.5],[1,0.5]];portConstraint=eastwest;rounded=0;shadow=0;html=0;" vertex="1" parent="hHf1MksaNPmu3KOBVRJs-22">
          <mxGeometry y="78" width="160" height="26" as="geometry" />
        </mxCell>
        <mxCell id="hHf1MksaNPmu3KOBVRJs-26" value="Reservation_type" style="text;align=left;verticalAlign=top;spacingLeft=4;spacingRight=4;overflow=hidden;rotatable=0;points=[[0,0.5],[1,0.5]];portConstraint=eastwest;rounded=0;shadow=0;html=0;" vertex="1" parent="hHf1MksaNPmu3KOBVRJs-22">
          <mxGeometry y="104" width="160" height="26" as="geometry" />
        </mxCell>
        <mxCell id="hHf1MksaNPmu3KOBVRJs-27" value="Reservation_received" style="text;align=left;verticalAlign=top;spacingLeft=4;spacingRight=4;overflow=hidden;rotatable=0;points=[[0,0.5],[1,0.5]];portConstraint=eastwest;rounded=0;shadow=0;html=0;" vertex="1" parent="hHf1MksaNPmu3KOBVRJs-22">
          <mxGeometry y="130" width="160" height="26" as="geometry" />
        </mxCell>
        <mxCell id="hHf1MksaNPmu3KOBVRJs-28" value="Reservation_accepted" style="text;align=left;verticalAlign=top;spacingLeft=4;spacingRight=4;overflow=hidden;rotatable=0;points=[[0,0.5],[1,0.5]];portConstraint=eastwest;" vertex="1" parent="hHf1MksaNPmu3KOBVRJs-22">
          <mxGeometry y="156" width="160" height="26" as="geometry" />
        </mxCell>
        <mxCell id="hHf1MksaNPmu3KOBVRJs-29" value="Reservation_created" style="text;align=left;verticalAlign=top;spacingLeft=4;spacingRight=4;overflow=hidden;rotatable=0;points=[[0,0.5],[1,0.5]];portConstraint=eastwest;" vertex="1" parent="hHf1MksaNPmu3KOBVRJs-22">
          <mxGeometry y="182" width="160" height="26" as="geometry" />
        </mxCell>
        <mxCell id="hHf1MksaNPmu3KOBVRJs-30" value="Reservation_valided" style="text;align=left;verticalAlign=top;spacingLeft=4;spacingRight=4;overflow=hidden;rotatable=0;points=[[0,0.5],[1,0.5]];portConstraint=eastwest;" vertex="1" parent="hHf1MksaNPmu3KOBVRJs-22">
          <mxGeometry y="208" width="160" height="26" as="geometry" />
        </mxCell>
        <mxCell id="hHf1MksaNPmu3KOBVRJs-31" value="Reservation_refused" style="text;align=left;verticalAlign=top;spacingLeft=4;spacingRight=4;overflow=hidden;rotatable=0;points=[[0,0.5],[1,0.5]];portConstraint=eastwest;" vertex="1" parent="hHf1MksaNPmu3KOBVRJs-22">
          <mxGeometry y="234" width="160" height="26" as="geometry" />
        </mxCell>
        <mxCell id="hHf1MksaNPmu3KOBVRJs-43" value="Returned" style="swimlane;fontStyle=2;align=center;verticalAlign=top;childLayout=stackLayout;horizontal=1;startSize=26;horizontalStack=0;resizeParent=1;resizeLast=0;collapsible=1;marginBottom=0;rounded=0;shadow=0;strokeWidth=1;" vertex="1" parent="WIyWlLk6GJQsqaUBKTNV-1">
          <mxGeometry x="-1452" y="604" width="160" height="140" as="geometry">
            <mxRectangle x="230" y="140" width="160" height="26" as="alternateBounds" />
          </mxGeometry>
        </mxCell>
        <mxCell id="hHf1MksaNPmu3KOBVRJs-44" value="Return_id" style="text;align=left;verticalAlign=top;spacingLeft=4;spacingRight=4;overflow=hidden;rotatable=0;points=[[0,0.5],[1,0.5]];portConstraint=eastwest;" vertex="1" parent="hHf1MksaNPmu3KOBVRJs-43">
          <mxGeometry y="26" width="160" height="26" as="geometry" />
        </mxCell>
        <mxCell id="hHf1MksaNPmu3KOBVRJs-45" value="Return_date" style="text;align=left;verticalAlign=top;spacingLeft=4;spacingRight=4;overflow=hidden;rotatable=0;points=[[0,0.5],[1,0.5]];portConstraint=eastwest;rounded=0;shadow=0;html=0;" vertex="1" parent="hHf1MksaNPmu3KOBVRJs-43">
          <mxGeometry y="52" width="160" height="26" as="geometry" />
        </mxCell>
        <mxCell id="hHf1MksaNPmu3KOBVRJs-46" value="Return_description" style="text;align=left;verticalAlign=top;spacingLeft=4;spacingRight=4;overflow=hidden;rotatable=0;points=[[0,0.5],[1,0.5]];portConstraint=eastwest;rounded=0;shadow=0;html=0;" vertex="1" parent="hHf1MksaNPmu3KOBVRJs-43">
          <mxGeometry y="78" width="160" height="26" as="geometry" />
        </mxCell>
        <mxCell id="hHf1MksaNPmu3KOBVRJs-47" value="Insurance" style="text;align=left;verticalAlign=top;spacingLeft=4;spacingRight=4;overflow=hidden;rotatable=0;points=[[0,0.5],[1,0.5]];portConstraint=eastwest;rounded=0;shadow=0;html=0;" vertex="1" parent="hHf1MksaNPmu3KOBVRJs-43">
          <mxGeometry y="104" width="160" height="26" as="geometry" />
        </mxCell>
        <mxCell id="hHf1MksaNPmu3KOBVRJs-59" value="" style="endArrow=none;html=1;rounded=0;entryX=1;entryY=0.5;entryDx=0;entryDy=0;exitX=0;exitY=0.5;exitDx=0;exitDy=0;elbow=vertical;" edge="1" parent="WIyWlLk6GJQsqaUBKTNV-1" source="hHf1MksaNPmu3KOBVRJs-60" target="hHf1MksaNPmu3KOBVRJs-60">
          <mxGeometry width="50" height="50" relative="1" as="geometry">
            <mxPoint x="-1255" y="460" as="sourcePoint" />
            <mxPoint x="-1205" y="410" as="targetPoint" />
          </mxGeometry>
        </mxCell>
        <object label="" id="hHf1MksaNPmu3KOBVRJs-60">
          <mxCell style="rounded=1;whiteSpace=wrap;html=1;overflow=visible;strokeColor=#FF33FF;" vertex="1" parent="WIyWlLk6GJQsqaUBKTNV-1">
            <mxGeometry x="-1070" y="410" width="180" height="90" as="geometry" />
          </mxCell>
        </object>
        <mxCell id="hHf1MksaNPmu3KOBVRJs-61" value="&#xa;&lt;br class=&quot;Apple-interchange-newline&quot;&gt;&#xa;&#xa;" style="endArrow=none;html=1;rounded=0;exitX=0;exitY=0.5;exitDx=0;exitDy=0;entryX=1;entryY=0.5;entryDx=0;entryDy=0;strokeColor=#ff00ff;" edge="1" parent="WIyWlLk6GJQsqaUBKTNV-1" source="hHf1MksaNPmu3KOBVRJs-60" target="hHf1MksaNPmu3KOBVRJs-60">
          <mxGeometry width="50" height="50" relative="1" as="geometry">
            <mxPoint x="-1100" y="459.41" as="sourcePoint" />
            <mxPoint x="-860" y="459.41" as="targetPoint" />
          </mxGeometry>
        </mxCell>
        <mxCell id="hHf1MksaNPmu3KOBVRJs-65" value="Accident - Customer" style="text;whiteSpace=wrap;html=1;fillColor=none;fontColor=#000000;labelBackgroundColor=none;labelBorderColor=none;" vertex="1" parent="WIyWlLk6GJQsqaUBKTNV-1">
          <mxGeometry x="-1062" y="421" width="170" height="40" as="geometry" />
        </mxCell>
        <mxCell id="hHf1MksaNPmu3KOBVRJs-66" value="" style="endArrow=none;html=1;rounded=0;entryX=1;entryY=0.5;entryDx=0;entryDy=0;exitX=0;exitY=0.5;exitDx=0;exitDy=0;elbow=vertical;" edge="1" parent="WIyWlLk6GJQsqaUBKTNV-1" source="hHf1MksaNPmu3KOBVRJs-67" target="hHf1MksaNPmu3KOBVRJs-67">
          <mxGeometry width="50" height="50" relative="1" as="geometry">
            <mxPoint x="-1455" y="460" as="sourcePoint" />
            <mxPoint x="-1405" y="410" as="targetPoint" />
          </mxGeometry>
        </mxCell>
        <object label="" id="hHf1MksaNPmu3KOBVRJs-67">
          <mxCell style="rounded=1;whiteSpace=wrap;html=1;overflow=visible;strokeColor=#FF33FF;" vertex="1" parent="WIyWlLk6GJQsqaUBKTNV-1">
            <mxGeometry x="-1270" y="410" width="180" height="90" as="geometry" />
          </mxCell>
        </object>
        <mxCell id="hHf1MksaNPmu3KOBVRJs-68" value="&#xa;&lt;br class=&quot;Apple-interchange-newline&quot;&gt;&#xa;&#xa;" style="endArrow=none;html=1;rounded=0;exitX=0;exitY=0.5;exitDx=0;exitDy=0;entryX=1;entryY=0.5;entryDx=0;entryDy=0;strokeColor=#ff00ff;" edge="1" parent="WIyWlLk6GJQsqaUBKTNV-1" source="hHf1MksaNPmu3KOBVRJs-67" target="hHf1MksaNPmu3KOBVRJs-67">
          <mxGeometry width="50" height="50" relative="1" as="geometry">
            <mxPoint x="-1300" y="459.41" as="sourcePoint" />
            <mxPoint x="-1060" y="459.41" as="targetPoint" />
          </mxGeometry>
        </mxCell>
        <mxCell id="hHf1MksaNPmu3KOBVRJs-69" value="Accident - Accident_category" style="text;whiteSpace=wrap;html=1;fillColor=none;fontColor=#000000;labelBackgroundColor=none;labelBorderColor=none;" vertex="1" parent="WIyWlLk6GJQsqaUBKTNV-1">
          <mxGeometry x="-1262" y="421" width="170" height="40" as="geometry" />
        </mxCell>
        <mxCell id="hHf1MksaNPmu3KOBVRJs-70" value="" style="endArrow=none;html=1;rounded=0;entryX=1;entryY=0.5;entryDx=0;entryDy=0;exitX=0;exitY=0.5;exitDx=0;exitDy=0;elbow=vertical;" edge="1" parent="WIyWlLk6GJQsqaUBKTNV-1" source="hHf1MksaNPmu3KOBVRJs-71" target="hHf1MksaNPmu3KOBVRJs-71">
          <mxGeometry width="50" height="50" relative="1" as="geometry">
            <mxPoint x="-1035" y="460" as="sourcePoint" />
            <mxPoint x="-985" y="410" as="targetPoint" />
          </mxGeometry>
        </mxCell>
        <object label="" id="hHf1MksaNPmu3KOBVRJs-71">
          <mxCell style="rounded=1;whiteSpace=wrap;html=1;overflow=visible;strokeColor=#FF33FF;" vertex="1" parent="WIyWlLk6GJQsqaUBKTNV-1">
            <mxGeometry x="-850" y="410" width="180" height="90" as="geometry" />
          </mxCell>
        </object>
        <mxCell id="hHf1MksaNPmu3KOBVRJs-72" value="&#xa;&lt;br class=&quot;Apple-interchange-newline&quot;&gt;&#xa;&#xa;" style="endArrow=none;html=1;rounded=0;exitX=0;exitY=0.5;exitDx=0;exitDy=0;entryX=1;entryY=0.5;entryDx=0;entryDy=0;strokeColor=#ff00ff;" edge="1" parent="WIyWlLk6GJQsqaUBKTNV-1" source="hHf1MksaNPmu3KOBVRJs-71" target="hHf1MksaNPmu3KOBVRJs-71">
          <mxGeometry width="50" height="50" relative="1" as="geometry">
            <mxPoint x="-880" y="459.41" as="sourcePoint" />
            <mxPoint x="-640" y="459.41" as="targetPoint" />
          </mxGeometry>
        </mxCell>
        <mxCell id="hHf1MksaNPmu3KOBVRJs-73" value="Device - Device_model" style="text;whiteSpace=wrap;html=1;fillColor=none;fontColor=#000000;labelBackgroundColor=none;labelBorderColor=none;" vertex="1" parent="WIyWlLk6GJQsqaUBKTNV-1">
          <mxGeometry x="-842" y="421" width="170" height="40" as="geometry" />
        </mxCell>
        <mxCell id="hHf1MksaNPmu3KOBVRJs-74" value="" style="endArrow=none;html=1;rounded=0;entryX=1;entryY=0.5;entryDx=0;entryDy=0;exitX=0;exitY=0.5;exitDx=0;exitDy=0;elbow=vertical;" edge="1" parent="WIyWlLk6GJQsqaUBKTNV-1" source="hHf1MksaNPmu3KOBVRJs-75" target="hHf1MksaNPmu3KOBVRJs-75">
          <mxGeometry width="50" height="50" relative="1" as="geometry">
            <mxPoint x="-825" y="460" as="sourcePoint" />
            <mxPoint x="-775" y="410" as="targetPoint" />
          </mxGeometry>
        </mxCell>
        <object label="" id="hHf1MksaNPmu3KOBVRJs-75">
          <mxCell style="rounded=1;whiteSpace=wrap;html=1;overflow=visible;strokeColor=#FF33FF;" vertex="1" parent="WIyWlLk6GJQsqaUBKTNV-1">
            <mxGeometry x="-640" y="410" width="180" height="90" as="geometry" />
          </mxCell>
        </object>
        <mxCell id="hHf1MksaNPmu3KOBVRJs-76" value="&#xa;&lt;br class=&quot;Apple-interchange-newline&quot;&gt;&#xa;&#xa;" style="endArrow=none;html=1;rounded=0;exitX=0;exitY=0.5;exitDx=0;exitDy=0;entryX=1;entryY=0.5;entryDx=0;entryDy=0;strokeColor=#ff00ff;" edge="1" parent="WIyWlLk6GJQsqaUBKTNV-1" source="hHf1MksaNPmu3KOBVRJs-75" target="hHf1MksaNPmu3KOBVRJs-75">
          <mxGeometry width="50" height="50" relative="1" as="geometry">
            <mxPoint x="-670" y="459.41" as="sourcePoint" />
            <mxPoint x="-430" y="459.41" as="targetPoint" />
          </mxGeometry>
        </mxCell>
        <mxCell id="hHf1MksaNPmu3KOBVRJs-77" value="Customer - Authorisation" style="text;whiteSpace=wrap;html=1;fillColor=none;fontColor=#000000;labelBackgroundColor=none;labelBorderColor=none;" vertex="1" parent="WIyWlLk6GJQsqaUBKTNV-1">
          <mxGeometry x="-632" y="421" width="170" height="40" as="geometry" />
        </mxCell>
        <mxCell id="hHf1MksaNPmu3KOBVRJs-78" value="" style="endArrow=none;html=1;rounded=0;entryX=1;entryY=0.5;entryDx=0;entryDy=0;exitX=0;exitY=0.5;exitDx=0;exitDy=0;elbow=vertical;" edge="1" parent="WIyWlLk6GJQsqaUBKTNV-1" source="hHf1MksaNPmu3KOBVRJs-79" target="hHf1MksaNPmu3KOBVRJs-79">
          <mxGeometry width="50" height="50" relative="1" as="geometry">
            <mxPoint x="-635" y="460" as="sourcePoint" />
            <mxPoint x="-585" y="410" as="targetPoint" />
          </mxGeometry>
        </mxCell>
        <object label="" id="hHf1MksaNPmu3KOBVRJs-79">
          <mxCell style="rounded=1;whiteSpace=wrap;html=1;overflow=visible;strokeColor=#FF33FF;" vertex="1" parent="WIyWlLk6GJQsqaUBKTNV-1">
            <mxGeometry x="-450" y="410" width="180" height="90" as="geometry" />
          </mxCell>
        </object>
        <mxCell id="hHf1MksaNPmu3KOBVRJs-80" value="&#xa;&lt;br class=&quot;Apple-interchange-newline&quot;&gt;&#xa;&#xa;" style="endArrow=none;html=1;rounded=0;exitX=0;exitY=0.5;exitDx=0;exitDy=0;entryX=1;entryY=0.5;entryDx=0;entryDy=0;strokeColor=#ff00ff;" edge="1" parent="WIyWlLk6GJQsqaUBKTNV-1" source="hHf1MksaNPmu3KOBVRJs-79" target="hHf1MksaNPmu3KOBVRJs-79">
          <mxGeometry width="50" height="50" relative="1" as="geometry">
            <mxPoint x="-480" y="459.41" as="sourcePoint" />
            <mxPoint x="-240" y="459.41" as="targetPoint" />
          </mxGeometry>
        </mxCell>
        <mxCell id="hHf1MksaNPmu3KOBVRJs-81" value="Reservation - Customer" style="text;whiteSpace=wrap;html=1;fillColor=none;fontColor=#000000;labelBackgroundColor=none;labelBorderColor=none;" vertex="1" parent="WIyWlLk6GJQsqaUBKTNV-1">
          <mxGeometry x="-442" y="421" width="170" height="40" as="geometry" />
        </mxCell>
        <mxCell id="hHf1MksaNPmu3KOBVRJs-82" value="" style="endArrow=none;html=1;rounded=0;entryX=1;entryY=0.5;entryDx=0;entryDy=0;exitX=0;exitY=0.5;exitDx=0;exitDy=0;elbow=vertical;" edge="1" parent="WIyWlLk6GJQsqaUBKTNV-1" source="hHf1MksaNPmu3KOBVRJs-83" target="hHf1MksaNPmu3KOBVRJs-83">
          <mxGeometry width="50" height="50" relative="1" as="geometry">
            <mxPoint x="-435" y="460" as="sourcePoint" />
            <mxPoint x="-385" y="410" as="targetPoint" />
          </mxGeometry>
        </mxCell>
        <object label="" id="hHf1MksaNPmu3KOBVRJs-83">
          <mxCell style="rounded=1;whiteSpace=wrap;html=1;overflow=visible;strokeColor=#FF33FF;" vertex="1" parent="WIyWlLk6GJQsqaUBKTNV-1">
            <mxGeometry x="-250" y="410" width="180" height="90" as="geometry" />
          </mxCell>
        </object>
        <mxCell id="hHf1MksaNPmu3KOBVRJs-84" value="&#xa;&lt;br class=&quot;Apple-interchange-newline&quot;&gt;&#xa;&#xa;" style="endArrow=none;html=1;rounded=0;exitX=0;exitY=0.5;exitDx=0;exitDy=0;entryX=1;entryY=0.5;entryDx=0;entryDy=0;strokeColor=#ff00ff;" edge="1" parent="WIyWlLk6GJQsqaUBKTNV-1" source="hHf1MksaNPmu3KOBVRJs-83" target="hHf1MksaNPmu3KOBVRJs-83">
          <mxGeometry width="50" height="50" relative="1" as="geometry">
            <mxPoint x="-280" y="459.41" as="sourcePoint" />
            <mxPoint x="-40" y="459.41" as="targetPoint" />
          </mxGeometry>
        </mxCell>
        <mxCell id="hHf1MksaNPmu3KOBVRJs-85" value="Returned - Reservation" style="text;whiteSpace=wrap;html=1;fillColor=none;fontColor=#000000;labelBackgroundColor=none;labelBorderColor=none;" vertex="1" parent="WIyWlLk6GJQsqaUBKTNV-1">
          <mxGeometry x="-242" y="421" width="170" height="40" as="geometry" />
        </mxCell>
        <mxCell id="hHf1MksaNPmu3KOBVRJs-86" value="" style="endArrow=none;html=1;rounded=0;entryX=1;entryY=0.5;entryDx=0;entryDy=0;exitX=0;exitY=0.5;exitDx=0;exitDy=0;elbow=vertical;" edge="1" parent="WIyWlLk6GJQsqaUBKTNV-1" source="hHf1MksaNPmu3KOBVRJs-87" target="hHf1MksaNPmu3KOBVRJs-87">
          <mxGeometry width="50" height="50" relative="1" as="geometry">
            <mxPoint x="-735" y="1050" as="sourcePoint" />
            <mxPoint x="-685" y="1000" as="targetPoint" />
          </mxGeometry>
        </mxCell>
        <object label="" id="hHf1MksaNPmu3KOBVRJs-87">
          <mxCell style="rounded=1;whiteSpace=wrap;html=1;overflow=visible;strokeColor=#FF33FF;" vertex="1" parent="WIyWlLk6GJQsqaUBKTNV-1">
            <mxGeometry x="-550" y="1000" width="180" height="90" as="geometry" />
          </mxCell>
        </object>
        <mxCell id="hHf1MksaNPmu3KOBVRJs-88" value="&#xa;&lt;br class=&quot;Apple-interchange-newline&quot;&gt;&#xa;&#xa;" style="endArrow=none;html=1;rounded=0;exitX=0;exitY=0.5;exitDx=0;exitDy=0;entryX=1;entryY=0.5;entryDx=0;entryDy=0;strokeColor=#ff00ff;" edge="1" parent="WIyWlLk6GJQsqaUBKTNV-1" source="hHf1MksaNPmu3KOBVRJs-87" target="hHf1MksaNPmu3KOBVRJs-87">
          <mxGeometry width="50" height="50" relative="1" as="geometry">
            <mxPoint x="-580" y="1049.41" as="sourcePoint" />
            <mxPoint x="-340" y="1049.41" as="targetPoint" />
          </mxGeometry>
        </mxCell>
        <mxCell id="hHf1MksaNPmu3KOBVRJs-89" value="Accident - Device" style="text;whiteSpace=wrap;html=1;fillColor=none;fontColor=#000000;labelBackgroundColor=none;labelBorderColor=none;" vertex="1" parent="WIyWlLk6GJQsqaUBKTNV-1">
          <mxGeometry x="-542" y="1011" width="170" height="40" as="geometry" />
        </mxCell>
        <mxCell id="hHf1MksaNPmu3KOBVRJs-90" value="" style="endArrow=none;html=1;rounded=0;entryX=1;entryY=0.5;entryDx=0;entryDy=0;exitX=0;exitY=0.5;exitDx=0;exitDy=0;elbow=vertical;" edge="1" parent="WIyWlLk6GJQsqaUBKTNV-1" source="hHf1MksaNPmu3KOBVRJs-91" target="hHf1MksaNPmu3KOBVRJs-91">
          <mxGeometry width="50" height="50" relative="1" as="geometry">
            <mxPoint x="-535" y="1050" as="sourcePoint" />
            <mxPoint x="-485" y="1000" as="targetPoint" />
          </mxGeometry>
        </mxCell>
        <object label="" id="hHf1MksaNPmu3KOBVRJs-91">
          <mxCell style="rounded=1;whiteSpace=wrap;html=1;overflow=visible;strokeColor=#FF33FF;" vertex="1" parent="WIyWlLk6GJQsqaUBKTNV-1">
            <mxGeometry x="-350" y="1000" width="180" height="90" as="geometry" />
          </mxCell>
        </object>
        <mxCell id="hHf1MksaNPmu3KOBVRJs-92" value="&#xa;&lt;br class=&quot;Apple-interchange-newline&quot;&gt;&#xa;&#xa;" style="endArrow=none;html=1;rounded=0;exitX=0;exitY=0.5;exitDx=0;exitDy=0;entryX=1;entryY=0.5;entryDx=0;entryDy=0;strokeColor=#ff00ff;" edge="1" parent="WIyWlLk6GJQsqaUBKTNV-1" source="hHf1MksaNPmu3KOBVRJs-91" target="hHf1MksaNPmu3KOBVRJs-91">
          <mxGeometry width="50" height="50" relative="1" as="geometry">
            <mxPoint x="-380" y="1049.41" as="sourcePoint" />
            <mxPoint x="-140" y="1049.41" as="targetPoint" />
          </mxGeometry>
        </mxCell>
        <mxCell id="hHf1MksaNPmu3KOBVRJs-93" value="Device - Device_category" style="text;whiteSpace=wrap;html=1;fillColor=none;fontColor=#000000;labelBackgroundColor=none;labelBorderColor=none;" vertex="1" parent="WIyWlLk6GJQsqaUBKTNV-1">
          <mxGeometry x="-342" y="1011" width="170" height="40" as="geometry" />
        </mxCell>
        <mxCell id="hHf1MksaNPmu3KOBVRJs-114" value="" style="endArrow=none;html=1;rounded=0;entryX=1;entryY=0.5;entryDx=0;entryDy=0;exitX=0;exitY=0.5;exitDx=0;exitDy=0;elbow=vertical;" edge="1" parent="WIyWlLk6GJQsqaUBKTNV-1" source="hHf1MksaNPmu3KOBVRJs-115" target="hHf1MksaNPmu3KOBVRJs-115">
          <mxGeometry width="50" height="50" relative="1" as="geometry">
            <mxPoint x="-1335" y="1050" as="sourcePoint" />
            <mxPoint x="-1285" y="1000" as="targetPoint" />
          </mxGeometry>
        </mxCell>
        <object label="" id="hHf1MksaNPmu3KOBVRJs-115">
          <mxCell style="rounded=1;whiteSpace=wrap;html=1;overflow=visible;strokeColor=#FF33FF;" vertex="1" parent="WIyWlLk6GJQsqaUBKTNV-1">
            <mxGeometry x="-1150" y="1000" width="180" height="90" as="geometry" />
          </mxCell>
        </object>
        <mxCell id="hHf1MksaNPmu3KOBVRJs-116" value="&#xa;&lt;br class=&quot;Apple-interchange-newline&quot;&gt;&#xa;&#xa;" style="endArrow=none;html=1;rounded=0;exitX=0;exitY=0.5;exitDx=0;exitDy=0;entryX=1;entryY=0.5;entryDx=0;entryDy=0;strokeColor=#ff00ff;" edge="1" parent="WIyWlLk6GJQsqaUBKTNV-1" source="hHf1MksaNPmu3KOBVRJs-115" target="hHf1MksaNPmu3KOBVRJs-115">
          <mxGeometry width="50" height="50" relative="1" as="geometry">
            <mxPoint x="-1180" y="1049.41" as="sourcePoint" />
            <mxPoint x="-940" y="1049.41" as="targetPoint" />
          </mxGeometry>
        </mxCell>
        <mxCell id="hHf1MksaNPmu3KOBVRJs-117" value="Returned - Device" style="text;whiteSpace=wrap;html=1;fillColor=none;fontColor=#000000;labelBackgroundColor=none;labelBorderColor=none;" vertex="1" parent="WIyWlLk6GJQsqaUBKTNV-1">
          <mxGeometry x="-1142" y="1011" width="170" height="40" as="geometry" />
        </mxCell>
        <mxCell id="hHf1MksaNPmu3KOBVRJs-118" value="" style="endArrow=none;html=1;rounded=0;entryX=1;entryY=0.5;entryDx=0;entryDy=0;exitX=0;exitY=0.5;exitDx=0;exitDy=0;elbow=vertical;" edge="1" parent="WIyWlLk6GJQsqaUBKTNV-1" source="hHf1MksaNPmu3KOBVRJs-119" target="hHf1MksaNPmu3KOBVRJs-119">
          <mxGeometry width="50" height="50" relative="1" as="geometry">
            <mxPoint x="-1135" y="1050" as="sourcePoint" />
            <mxPoint x="-1085" y="1000" as="targetPoint" />
          </mxGeometry>
        </mxCell>
        <object label="" id="hHf1MksaNPmu3KOBVRJs-119">
          <mxCell style="rounded=1;whiteSpace=wrap;html=1;overflow=visible;strokeColor=#FF33FF;" vertex="1" parent="WIyWlLk6GJQsqaUBKTNV-1">
            <mxGeometry x="-950" y="1000" width="180" height="90" as="geometry" />
          </mxCell>
        </object>
        <mxCell id="hHf1MksaNPmu3KOBVRJs-120" value="&#xa;&lt;br class=&quot;Apple-interchange-newline&quot;&gt;&#xa;&#xa;" style="endArrow=none;html=1;rounded=0;exitX=0;exitY=0.5;exitDx=0;exitDy=0;entryX=1;entryY=0.5;entryDx=0;entryDy=0;strokeColor=#ff00ff;" edge="1" parent="WIyWlLk6GJQsqaUBKTNV-1" source="hHf1MksaNPmu3KOBVRJs-119" target="hHf1MksaNPmu3KOBVRJs-119">
          <mxGeometry width="50" height="50" relative="1" as="geometry">
            <mxPoint x="-980" y="1049.41" as="sourcePoint" />
            <mxPoint x="-740" y="1049.41" as="targetPoint" />
          </mxGeometry>
        </mxCell>
        <mxCell id="hHf1MksaNPmu3KOBVRJs-121" value="Reservation - Device" style="text;whiteSpace=wrap;html=1;fillColor=none;fontColor=#000000;labelBackgroundColor=none;labelBorderColor=none;" vertex="1" parent="WIyWlLk6GJQsqaUBKTNV-1">
          <mxGeometry x="-942" y="1011" width="170" height="40" as="geometry" />
        </mxCell>
        <mxCell id="hHf1MksaNPmu3KOBVRJs-122" value="" style="endArrow=none;html=1;rounded=0;entryX=1;entryY=0.5;entryDx=0;entryDy=0;exitX=0;exitY=0.5;exitDx=0;exitDy=0;elbow=vertical;" edge="1" parent="WIyWlLk6GJQsqaUBKTNV-1" source="hHf1MksaNPmu3KOBVRJs-123" target="hHf1MksaNPmu3KOBVRJs-123">
          <mxGeometry width="50" height="50" relative="1" as="geometry">
            <mxPoint x="-935" y="1050" as="sourcePoint" />
            <mxPoint x="-885" y="1000" as="targetPoint" />
          </mxGeometry>
        </mxCell>
        <object label="" id="hHf1MksaNPmu3KOBVRJs-123">
          <mxCell style="rounded=1;whiteSpace=wrap;html=1;overflow=visible;strokeColor=#FF33FF;" vertex="1" parent="WIyWlLk6GJQsqaUBKTNV-1">
            <mxGeometry x="-750" y="1000" width="180" height="90" as="geometry" />
          </mxCell>
        </object>
        <mxCell id="hHf1MksaNPmu3KOBVRJs-124" value="&#xa;&lt;br class=&quot;Apple-interchange-newline&quot;&gt;&#xa;&#xa;" style="endArrow=none;html=1;rounded=0;exitX=0;exitY=0.5;exitDx=0;exitDy=0;entryX=1;entryY=0.5;entryDx=0;entryDy=0;strokeColor=#ff00ff;" edge="1" parent="WIyWlLk6GJQsqaUBKTNV-1" source="hHf1MksaNPmu3KOBVRJs-123" target="hHf1MksaNPmu3KOBVRJs-123">
          <mxGeometry width="50" height="50" relative="1" as="geometry">
            <mxPoint x="-780" y="1049.41" as="sourcePoint" />
            <mxPoint x="-540" y="1049.41" as="targetPoint" />
          </mxGeometry>
        </mxCell>
        <mxCell id="hHf1MksaNPmu3KOBVRJs-125" value="Customer - Consent" style="text;whiteSpace=wrap;html=1;fillColor=none;fontColor=#000000;labelBackgroundColor=none;labelBorderColor=none;" vertex="1" parent="WIyWlLk6GJQsqaUBKTNV-1">
          <mxGeometry x="-742" y="1011" width="170" height="40" as="geometry" />
        </mxCell>
        <mxCell id="hHf1MksaNPmu3KOBVRJs-127" value="Branch" style="whiteSpace=wrap;html=1;shape=partialRectangle;top=0;left=0;bottom=1;right=0;points=[[0,1],[1,1]];fillColor=none;align=center;verticalAlign=bottom;routingCenterY=0.5;snapToPoint=1;recursiveResize=0;autosize=1;treeFolding=1;treeMoving=1;newEdgeStyle={&quot;edgeStyle&quot;:&quot;entityRelationEdgeStyle&quot;,&quot;startArrow&quot;:&quot;none&quot;,&quot;endArrow&quot;:&quot;none&quot;,&quot;segment&quot;:10,&quot;curved&quot;:1,&quot;sourcePerimeterSpacing&quot;:0,&quot;targetPerimeterSpacing&quot;:0};" vertex="1" parent="WIyWlLk6GJQsqaUBKTNV-1">
          <mxGeometry x="-600" y="720" width="80" height="30" as="geometry" />
        </mxCell>
        <mxCell id="hHf1MksaNPmu3KOBVRJs-143" value="" style="endArrow=classic;html=1;rounded=0;exitX=0.465;exitY=0;exitDx=0;exitDy=0;exitPerimeter=0;entryX=0.344;entryY=1.013;entryDx=0;entryDy=0;entryPerimeter=0;" edge="1" parent="WIyWlLk6GJQsqaUBKTNV-1" source="zkfFHV4jXpPFQw0GAbJ--17" target="hHf1MksaNPmu3KOBVRJs-79">
          <mxGeometry relative="1" as="geometry">
            <mxPoint x="-470" y="580" as="sourcePoint" />
            <mxPoint x="-370" y="580" as="targetPoint" />
          </mxGeometry>
        </mxCell>
        <mxCell id="hHf1MksaNPmu3KOBVRJs-144" value="Label" style="edgeLabel;resizable=0;html=1;;align=center;verticalAlign=middle;" connectable="0" vertex="1" parent="hHf1MksaNPmu3KOBVRJs-143">
          <mxGeometry relative="1" as="geometry" />
        </mxCell>
      </root>
    </mxGraphModel>
  </diagram>
</mxfile>
